<svg width="259" height="71" viewBox="0 0 259 71" fill="none" xmlns="http://www.w3.org/2000/svg">
<g filter="url(#filter0_d_166_1756)">
<rect width="251.556" height="63.5556" rx="14" fill="white" shape-rendering="crispEdges"/>
<path d="M103.448 18.1841V43.7778H98.1924V18.1841H103.448ZM113.028 28.8188V43.7778H107.966V24.7583H112.712L113.028 28.8188ZM112.29 33.6001H110.919C110.919 32.1938 111.101 30.9282 111.464 29.8032C111.827 28.6665 112.337 27.6997 112.993 26.9028C113.649 26.0942 114.429 25.479 115.331 25.0571C116.245 24.6235 117.265 24.4067 118.39 24.4067C119.28 24.4067 120.095 24.5356 120.833 24.7935C121.571 25.0513 122.204 25.4614 122.731 26.0239C123.271 26.5864 123.681 27.3306 123.962 28.2563C124.255 29.1821 124.401 30.313 124.401 31.6489V43.7778H119.304V31.6313C119.304 30.7876 119.187 30.1313 118.952 29.6626C118.718 29.1938 118.372 28.8657 117.915 28.6782C117.47 28.479 116.919 28.3794 116.263 28.3794C115.583 28.3794 114.991 28.5142 114.487 28.7837C113.995 29.0532 113.585 29.4282 113.257 29.9087C112.94 30.3774 112.7 30.9282 112.536 31.561C112.372 32.1938 112.29 32.8735 112.29 33.6001ZM137.567 24.7583V28.3442H126.493V24.7583H137.567ZM129.235 20.0649H134.298V38.0474C134.298 38.5981 134.368 39.02 134.509 39.313C134.661 39.606 134.884 39.811 135.177 39.9282C135.47 40.0337 135.839 40.0864 136.284 40.0864C136.601 40.0864 136.882 40.0747 137.128 40.0513C137.386 40.0161 137.603 39.981 137.778 39.9458L137.796 43.6724C137.362 43.813 136.894 43.9243 136.39 44.0063C135.886 44.0884 135.329 44.1294 134.72 44.1294C133.606 44.1294 132.634 43.9478 131.802 43.5845C130.981 43.2095 130.349 42.6118 129.903 41.7915C129.458 40.9712 129.235 39.8931 129.235 38.5571V20.0649ZM139.185 34.4614V34.0923C139.185 32.6978 139.384 31.4146 139.782 30.2427C140.181 29.0591 140.761 28.0337 141.522 27.1665C142.284 26.2993 143.222 25.6255 144.335 25.145C145.448 24.6528 146.726 24.4067 148.167 24.4067C149.608 24.4067 150.892 24.6528 152.017 25.145C153.142 25.6255 154.085 26.2993 154.847 27.1665C155.62 28.0337 156.206 29.0591 156.604 30.2427C157.003 31.4146 157.202 32.6978 157.202 34.0923V34.4614C157.202 35.8442 157.003 37.1274 156.604 38.311C156.206 39.4829 155.62 40.5083 154.847 41.3872C154.085 42.2544 153.147 42.9282 152.034 43.4087C150.921 43.8892 149.644 44.1294 148.202 44.1294C146.761 44.1294 145.478 43.8892 144.353 43.4087C143.239 42.9282 142.296 42.2544 141.522 41.3872C140.761 40.5083 140.181 39.4829 139.782 38.311C139.384 37.1274 139.185 35.8442 139.185 34.4614ZM144.247 34.0923V34.4614C144.247 35.2583 144.317 36.0024 144.458 36.6938C144.599 37.3853 144.821 37.9946 145.126 38.522C145.442 39.0376 145.853 39.4419 146.356 39.7349C146.86 40.0278 147.476 40.1743 148.202 40.1743C148.905 40.1743 149.509 40.0278 150.013 39.7349C150.517 39.4419 150.921 39.0376 151.226 38.522C151.53 37.9946 151.753 37.3853 151.894 36.6938C152.046 36.0024 152.122 35.2583 152.122 34.4614V34.0923C152.122 33.3188 152.046 32.5923 151.894 31.9126C151.753 31.2212 151.524 30.6118 151.208 30.0845C150.903 29.5454 150.499 29.1235 149.995 28.8188C149.491 28.5142 148.882 28.3618 148.167 28.3618C147.452 28.3618 146.843 28.5142 146.339 28.8188C145.847 29.1235 145.442 29.5454 145.126 30.0845C144.821 30.6118 144.599 31.2212 144.458 31.9126C144.317 32.5923 144.247 33.3188 144.247 34.0923ZM160.63 18.1841H170.175C172.132 18.1841 173.813 18.4771 175.22 19.063C176.638 19.6489 177.728 20.5161 178.489 21.6646C179.251 22.813 179.632 24.2251 179.632 25.9009C179.632 27.272 179.397 28.4497 178.929 29.4341C178.472 30.4067 177.821 31.2212 176.978 31.8774C176.146 32.522 175.167 33.0376 174.042 33.4243L172.372 34.3032H164.075L164.04 30.1899H170.21C171.136 30.1899 171.903 30.0259 172.513 29.6978C173.122 29.3696 173.579 28.9126 173.884 28.3267C174.2 27.7407 174.358 27.061 174.358 26.2876C174.358 25.4673 174.206 24.7583 173.901 24.1606C173.597 23.563 173.134 23.106 172.513 22.7896C171.892 22.4731 171.112 22.3149 170.175 22.3149H165.903V43.7778H160.63V18.1841ZM174.938 43.7778L169.103 32.3696L174.675 32.3345L180.581 43.5317V43.7778H174.938ZM192.13 44.1294C190.653 44.1294 189.329 43.895 188.157 43.4263C186.985 42.9458 185.989 42.2837 185.169 41.4399C184.36 40.5962 183.739 39.6177 183.306 38.5044C182.872 37.3794 182.655 36.1841 182.655 34.9185V34.2153C182.655 32.7739 182.86 31.4556 183.271 30.2603C183.681 29.0649 184.267 28.0278 185.028 27.1489C185.802 26.27 186.739 25.5962 187.841 25.1274C188.942 24.647 190.185 24.4067 191.567 24.4067C192.915 24.4067 194.11 24.6294 195.153 25.0747C196.196 25.52 197.069 26.1528 197.772 26.9731C198.487 27.7935 199.026 28.7778 199.39 29.9263C199.753 31.063 199.935 32.3286 199.935 33.7231V35.8325H184.817V32.4575H194.96V32.0708C194.96 31.3677 194.831 30.7407 194.573 30.1899C194.327 29.6274 193.952 29.1821 193.448 28.854C192.944 28.5259 192.3 28.3618 191.515 28.3618C190.847 28.3618 190.272 28.5083 189.792 28.8013C189.312 29.0942 188.919 29.5044 188.614 30.0317C188.321 30.5591 188.099 31.1802 187.946 31.895C187.806 32.5981 187.735 33.3716 187.735 34.2153V34.9185C187.735 35.6802 187.841 36.3833 188.052 37.0278C188.274 37.6724 188.585 38.229 188.983 38.6978C189.394 39.1665 189.886 39.5298 190.46 39.7876C191.046 40.0454 191.708 40.1743 192.446 40.1743C193.36 40.1743 194.21 39.9985 194.995 39.647C195.792 39.2837 196.478 38.7388 197.052 38.0122L199.513 40.6841C199.114 41.2583 198.569 41.8091 197.878 42.3364C197.198 42.8638 196.378 43.2974 195.417 43.6372C194.456 43.9653 193.36 44.1294 192.13 44.1294ZM213.101 38.522C213.101 38.1587 212.995 37.8306 212.784 37.5376C212.573 37.2446 212.181 36.9751 211.606 36.729C211.044 36.4712 210.229 36.2368 209.163 36.0259C208.202 35.8149 207.306 35.5513 206.474 35.2349C205.653 34.9067 204.938 34.5142 204.329 34.0571C203.731 33.6001 203.263 33.061 202.923 32.4399C202.583 31.8071 202.413 31.0864 202.413 30.2778C202.413 29.481 202.583 28.731 202.923 28.0278C203.274 27.3247 203.772 26.7036 204.417 26.1646C205.073 25.6138 205.87 25.186 206.808 24.8813C207.757 24.5649 208.823 24.4067 210.007 24.4067C211.659 24.4067 213.077 24.6704 214.261 25.1978C215.456 25.7251 216.37 26.4517 217.003 27.3774C217.647 28.2915 217.97 29.3345 217.97 30.5063H212.907C212.907 30.0142 212.802 29.5747 212.591 29.188C212.392 28.7896 212.075 28.479 211.642 28.2563C211.22 28.022 210.669 27.9048 209.989 27.9048C209.427 27.9048 208.94 28.0044 208.53 28.2036C208.12 28.3911 207.804 28.6489 207.581 28.9771C207.37 29.2935 207.265 29.645 207.265 30.0317C207.265 30.3247 207.323 30.5884 207.44 30.8228C207.569 31.0454 207.774 31.2505 208.056 31.438C208.337 31.6255 208.7 31.8013 209.146 31.9653C209.603 32.1177 210.165 32.2583 210.833 32.3872C212.204 32.6685 213.429 33.0376 214.507 33.4946C215.585 33.9399 216.44 34.5493 217.073 35.3228C217.706 36.0845 218.022 37.0864 218.022 38.3286C218.022 39.1724 217.835 39.9458 217.46 40.6489C217.085 41.3521 216.546 41.9673 215.843 42.4946C215.14 43.0103 214.296 43.4146 213.312 43.7075C212.339 43.9888 211.243 44.1294 210.024 44.1294C208.255 44.1294 206.755 43.813 205.524 43.1802C204.306 42.5474 203.38 41.7446 202.747 40.772C202.126 39.7876 201.815 38.7798 201.815 37.7485H206.614C206.638 38.4399 206.813 38.9966 207.142 39.4185C207.481 39.8403 207.909 40.145 208.425 40.3325C208.952 40.52 209.521 40.6138 210.13 40.6138C210.786 40.6138 211.331 40.5259 211.765 40.3501C212.198 40.1626 212.526 39.9165 212.749 39.6118C212.983 39.2954 213.101 38.9321 213.101 38.522ZM230.626 24.7583V28.3442H219.552V24.7583H230.626ZM222.294 20.0649H227.356V38.0474C227.356 38.5981 227.427 39.02 227.567 39.313C227.72 39.606 227.942 39.811 228.235 39.9282C228.528 40.0337 228.897 40.0864 229.343 40.0864C229.659 40.0864 229.94 40.0747 230.187 40.0513C230.444 40.0161 230.661 39.981 230.837 39.9458L230.854 43.6724C230.421 43.813 229.952 43.9243 229.448 44.0063C228.944 44.0884 228.388 44.1294 227.778 44.1294C226.665 44.1294 225.692 43.9478 224.86 43.5845C224.04 43.2095 223.407 42.6118 222.962 41.7915C222.517 40.9712 222.294 39.8931 222.294 38.5571V20.0649Z" fill="#333333"/>
<rect x="2.5" y="2.5" width="246.556" height="58.5556" rx="11.5" stroke="black" stroke-width="5" shape-rendering="crispEdges"/>
</g>
<defs>
<filter id="filter0_d_166_1756" x="0" y="0" width="258.556" height="70.5557" filterUnits="userSpaceOnUse" color-interpolation-filters="sRGB">
<feFlood flood-opacity="0" result="BackgroundImageFix"/>
<feColorMatrix in="SourceAlpha" type="matrix" values="0 0 0 0 0 0 0 0 0 0 0 0 0 0 0 0 0 0 127 0" result="hardAlpha"/>
<feOffset dx="7" dy="7"/>
<feComposite in2="hardAlpha" operator="out"/>
<feColorMatrix type="matrix" values="0 0 0 0 0 0 0 0 0 0 0 0 0 0 0 0 0 0 1 0"/>
<feBlend mode="normal" in2="BackgroundImageFix" result="effect1_dropShadow_166_1756"/>
<feBlend mode="normal" in="SourceGraphic" in2="effect1_dropShadow_166_1756" result="shape"/>
</filter>
</defs>
</svg>
