<svg width="21" height="19" viewBox="0 0 21 19" fill="none" xmlns="http://www.w3.org/2000/svg">
<path fill-rule="evenodd" clip-rule="evenodd" d="M10.5 0C4.977 0 0.5 4.36 0.5 9.74C0.5 14.044 3.365 17.695 7.339 18.983C7.839 19.073 8.021 18.772 8.021 18.513C8.021 18.283 8.013 17.67 8.008 16.857C5.226 17.445 4.639 15.551 4.639 15.551C4.185 14.426 3.529 14.126 3.529 14.126C2.621 13.522 3.598 13.534 3.598 13.534C4.601 13.603 5.129 14.538 5.129 14.538C6.021 16.026 7.47 15.597 8.039 15.348C8.131 14.718 8.389 14.288 8.675 14.045C6.455 13.8 4.12 12.964 4.12 9.231C4.12 8.168 4.51 7.298 5.149 6.618C5.046 6.371 4.703 5.38 5.247 4.04C5.247 4.04 6.087 3.778 7.997 5.038C8.81374 4.82141 9.65503 4.71117 10.5 4.71C11.35 4.714 12.205 4.822 13.004 5.038C14.913 3.778 15.751 4.04 15.751 4.04C16.297 5.38 15.954 6.371 15.851 6.618C16.491 7.298 16.879 8.168 16.879 9.231C16.879 12.973 14.54 13.797 12.313 14.038C12.672 14.338 12.991 14.933 12.991 15.842C12.991 17.143 12.979 18.194 12.979 18.513C12.979 18.774 13.159 19.077 13.667 18.983C17.637 17.69 20.5 14.042 20.5 9.74C20.5 4.36 16.022 0 10.5 0Z" fill="black"/>
</svg>
