<svg width="20" height="20" viewBox="0 0 20 20" fill="none" xmlns="http://www.w3.org/2000/svg">
<g clip-path="url(#clip0_230_3661)">
<path d="M19.805 10.2305C19.805 9.55068 19.7499 8.86724 19.6323 8.19849H10.2V12.0493H15.6014C15.3773 13.2913 14.6571 14.3899 13.6025 15.0881V17.5867H16.825C18.7173 15.845 19.805 13.2729 19.805 10.2305Z" fill="#4285F4"/>
<path d="M10.2 20.0008C12.8971 20.0008 15.1716 19.1152 16.8287 17.5867L13.6063 15.088C12.7097 15.698 11.5522 16.0434 10.2037 16.0434C7.59486 16.0434 5.38285 14.2833 4.58917 11.917H1.26379V14.4928C2.96139 17.8696 6.41904 20.0008 10.2 20.0008Z" fill="#34A853"/>
<path d="M4.5854 11.9168C4.16651 10.6748 4.16651 9.32995 4.5854 8.08799V5.51221H1.2637C-0.154633 8.33785 -0.154633 11.6669 1.2637 14.4925L4.5854 11.9168Z" fill="#FBBC04"/>
<path d="M10.2 3.95805C11.6257 3.936 13.0036 4.47247 14.0362 5.45722L16.8912 2.60218C15.0834 0.904587 12.684 -0.0287217 10.2 0.000673888C6.41904 0.000673888 2.96139 2.13185 1.26379 5.51234L4.58549 8.08813C5.3755 5.71811 7.59119 3.95805 10.2 3.95805Z" fill="#EA4335"/>
</g>
<defs>
<clipPath id="clip0_230_3661">
<rect width="20" height="20" fill="white"/>
</clipPath>
</defs>
</svg>
